<?xml version="1.0" encoding="UTF-8"?>
<svg id="Layer_1" data-name="Layer 1" xmlns="http://www.w3.org/2000/svg" viewBox="0 0 1526.73 1201.95">
  <defs>
    <style>
      .cls-1 {
        fill: #46beaa;
      }
    </style>
  </defs>
  <path class="cls-1" d="M591.17,763.38c-15.82-127.65-59.63-245.51-127.25-339.5-17.84-24.8-36.92-47.32-57.04-67.56-19.46,17.07-37.68,35.5-54.52,55.16,81.61,81.95,140.49,207.05,160.3,351.9h78.5Z"/>
  <path class="cls-1" d="M446.78,763.38c-14.87-95.3-49.22-183.12-100.46-254.16-11.13-15.43-22.85-29.79-35.09-43.07-15.08,22.91-28.48,47.02-40,72.18,46.72,58.25,81.11,136.35,96.77,225.05h78.79Z"/>
  <path class="cls-1" d="M242.78,615.55c-13.31,46.99-20.44,96.58-20.44,147.83h79.03c-11.37-54.04-31.21-104.31-58.59-147.83Z"/>
  <path class="cls-1" d="M878.67,763.38c23.21-201.84,109.16-337.72,183.02-419.73,6.06-6.73,12.17-13.19,18.29-19.47-10.24-7.39-20.75-14.43-31.51-21.1-4.91,5.11-9.77,10.29-14.53,15.58-62.92,69.86-134.18,176.76-171.92,327.19-11.56-60.69-27.81-119.32-48.51-175.05,40.97-91.67,91.86-162.52,138.73-214.89-12.63-4.7-25.48-8.94-38.53-12.7-40.26,46.77-82.56,106.44-119.13,180.2-26.34-61.21-58.29-118.38-95.5-170.24-6.06-8.45-12.25-16.65-18.51-24.72-28.78,4.43-56.8,11.16-83.89,19.94,64.95,75.17,117.95,170.43,154.25,279.07-13.36,38.3-24.94,79.44-33.98,123.63-25.56-116.59-71.55-223.59-135.45-312.56-16.36-22.78-33.58-43.96-51.58-63.5-24.14,11.57-47.3,24.88-69.3,39.77,102.66,103.93,175.4,264.05,195.98,448.59h81.31c6.05-62.54,17.22-119.84,32-172.1,14.35,54.81,24.59,112.42,30.21,172.1h78.55Z"/>
  <path class="cls-1" d="M1019.79,763.38c22.28-157.61,90.75-264.72,149.9-330.34,4.07-4.52,8.17-8.86,12.27-13.14-7.99-9.72-16.32-19.15-24.96-28.29-83.42,85.45-153.15,209.4-174.93,371.77h37.72Z"/>
  <path class="cls-1" d="M1161.66,763.38c17.86-97.69,58.07-169.3,97.21-218.67-5.57-12.59-11.59-24.93-18.07-36.99-54.35,63.49-98.77,148.73-117.05,255.66h37.91Z"/>
  <path class="cls-1" d="M1297.82,675.88c-12.93,26.39-23.57,55.55-31.07,87.5h38.15c0-29.79-2.45-59.01-7.08-87.5Z"/>
  <polygon class="cls-1" points="745.77 841.92 714.78 841.92 714.78 979.86 799.82 979.86 799.82 952.65 745.77 952.65 745.77 841.92"/>
  <polygon class="cls-1" points="971.2 841.92 959.99 841.92 959.99 979.86 1034.07 979.86 1034.07 969.8 971.2 969.8 971.2 841.92"/>
  <rect class="cls-1" x="1046.98" y="841.92" width="11.21" height="137.95"/>
  <polygon class="cls-1" points="1239.42 969.8 1239.42 914.11 1300.4 914.11 1300.4 904.27 1239.42 904.27 1239.42 851.98 1304.95 851.98 1304.95 841.92 1228.22 841.92 1228.22 979.86 1307.23 979.86 1307.23 969.8 1239.42 969.8"/>
  <polygon class="cls-1" points="1190.78 969.8 1188.5 969.8 1108.59 841.92 1088.44 841.92 1088.44 979.86 1099.6 979.86 1099.6 851.98 1102.32 851.98 1182.23 979.86 1201.95 979.86 1201.95 841.92 1190.78 841.92 1190.78 969.8"/>
  <polygon class="cls-1" points="362.37 952.65 360.06 952.65 337.34 845.7 305.08 845.7 284.78 952.65 281.78 952.65 254.11 841.92 222.39 841.92 256.41 979.86 303.94 979.86 321.03 895.85 339.43 979.86 387.91 979.86 418.14 841.92 386.28 841.92 362.37 952.65"/>
  <path class="cls-1" d="M920,861.19c-14.7-14.38-34-20.47-56.13-20.41h-51.21v139.84h51.21c12.47,0,23.37-1.92,32.69-5.76,17.58-7.09,30.94-20.48,37.51-37.51,3.67-9.36,4.92-19.06,4.63-28.91-.02-17.68-6.03-34.71-18.71-47.24ZM903.51,929.22c-3.92,10.23-11.17,17.48-21.45,21.35-5.17,1.96-11.02,2.93-17.58,2.93h-20.82v-85.61h20.82c6.55,0,12.41.88,17.58,2.65,10.3,3.49,17.54,10.71,21.45,20.78,3.86,10.71,3.95,27.03,0,37.89Z"/>
  <path class="cls-1" d="M524.36,843.9c-17.64-8.2-46.43-8.18-63.97,0-17.49,7.69-30.6,21.72-37.04,39.12-3.66,9.72-4.91,19.53-4.63,29.57.25,26.41,16.12,53.02,41.1,64.44,17.72,8.82,47.47,8.82,65.19,0,24.98-11.41,40.86-38.04,41.1-64.44.8-18.87-5.62-38.19-18.71-52.34-6.17-6.8-13.86-12.25-23.05-16.35ZM492.51,955.42c-26.27,0-41.36-20.66-41.36-44.65s14.16-44.65,41.36-44.65c23.06,0,41.36,15.9,41.36,44.65,0,24.13-15.39,44.65-41.36,44.65Z"/>
  <path class="cls-1" d="M685.46,915.52c5.14-7.19,7.29-17.85,6.89-28.44,0-10.2-2.27-18.74-6.8-25.6-10.73-15.84-29.41-20.54-49.33-20.7,0,0-54.23,0-54.23,0v139.09h30.99v-42.71c.61,0,22.81.02,23.47,0l29.25,42.72h35.9l-35.23-49.39c8.19-3.34,14.55-8.32,19.08-14.95ZM657.25,900.78c-4.07,7.13-11,10.52-19.47,10.49h-24.8v-43.37h24.8c4.53,0,8.44.07,11.72,1.89,3.28,1.83,5.86,4.41,7.75,7.75,3.72,6.35,3.84,16.77,0,23.24Z"/>
</svg>